<?xml version="1.0" standalone="no"?>
<!DOCTYPE svg PUBLIC "-//W3C//DTD SVG 1.1//EN" "http://www.w3.org/Graphics/SVG/1.1/DTD/svg11.dtd" >
<svg xmlns="http://www.w3.org/2000/svg">
<metadata>Generated by IcoMoon</metadata>
<defs>
<font id="icomoon" horiz-adv-x="1024">
<font-face units-per-em="1024" ascent="960" descent="-64" />
<missing-glyph horiz-adv-x="1024" />
<glyph unicode="&#x20;" horiz-adv-x="512" d="" />
<glyph unicode="&#xe900;" d="M821.865 15.818c0-37.547-146.893-67.985-328.11-67.985s-328.109 30.438-328.109 67.985c0 37.55 146.892 67.988 328.109 67.988s328.11-30.438 328.11-67.988z" />
<glyph unicode="&#xe901;" d="M296.564 453.856c-11.283 0-20.45 8.746-20.45 19.545s9.167 19.555 20.45 19.555c11.297 0 20.465-8.756 20.465-19.555s-9.167-19.545-20.465-19.545zM296.564 356.101c-11.283 0-20.45 8.736-20.45 19.535s9.167 19.565 20.45 19.565c11.297 0 20.465-8.766 20.465-19.565s-9.167-19.535-20.465-19.535zM706.374 920.466h-265.853l-200.991-201.004 200.991 41.383c0-10.932-4.332-21.417-12.046-29.16l-145.612-146.102c3.627 3.16 8.405 5.138 13.701 5.138 11.297 0 20.465-8.756 20.465-19.555s-9.167-19.544-20.465-19.544c-11.283 0-20.45 8.744-20.45 19.544 0 4.844 1.914 9.219 4.965 12.636l-41.548-41.689 0.014-190.803c0-21.869 18.709-39.766 41.591-39.766h425.238c22.897 0 41.606 17.897 41.606 39.766v529.39c0 21.858-18.738 39.766-41.606 39.766z" />
<glyph unicode="&#xe902;" d="M374.292 660.321h301.5v-19.143h-301.5v19.143z" />
<glyph unicode="&#xe903;" d="M374.292 580.556h301.5v-19.142h-301.5v19.142z" />
<glyph unicode="&#xe904;" d="M374.292 500.793h301.5v-19.143h-301.5v19.143z" />
<glyph unicode="&#xe905;" d="M374.292 421.030h301.5v-19.143h-301.5v19.143z" />
<glyph unicode="&#xe906;" d="M493.755 819.847h182.037v-19.143h-182.037v19.143z" />
<glyph unicode="&#xe907;" d="M493.755 740.084h182.037v-19.143h-182.037v19.143z" />
<glyph unicode="&#xe908;" d="M296.564 688.488c11.297 0 20.465-8.757 20.465-19.555 0-10.801-9.167-19.545-20.465-19.545-11.283 0-20.45 8.744-20.45 19.545 0 10.798 9.167 19.555 20.45 19.555zM282.863 585.583l145.612 146.102c7.714 7.743 12.046 18.228 12.046 29.16l-200.991-41.383v-177.35l41.548 41.689c0.561 0.626 1.137 1.226 1.785 1.782z" />
<glyph unicode="&#xe909;" d="M440.521 920.466l-200.991-201.004h159.601c22.868 0 41.39 18.528 41.39 41.383v159.621z" />
<glyph unicode="&#xe90a;" d="M211.219 390.544c14.377-46.45 40.375-78.97 72.085-78.97h424.636c41.558 0 71.889 48.778 84.888 111.489 13.59 65.033 8.667 144.778-21.466 199.747-2.56 5.033-5.516 9.678-8.469 14.322l-143.582 210.588c-42.74 62.328-94.342 96.392-147.521 96.392-28.951 0-57.312-10.064-83.902-29.032-10.832-7.355-21.271-16.648-31.316-27.098-35.059-36.389-65.785-89.811-88.631-156.007l-54.951-159.103c-20.483-59.228-18.515-129.681-1.772-182.329z" />
<glyph unicode="&#xe90b;" d="M211.219 390.544c14.377-46.45 40.375-78.97 72.085-78.97h47.663l-17.527 301.946 70.961 162.39 3.487 139.171c-10.832-7.355-21.271-16.648-31.316-27.098-35.059-36.389-65.785-89.811-88.631-156.007l-54.951-159.103c-20.483-59.228-18.515-129.681-1.772-182.329z" />
<glyph unicode="&#xe90c;" d="M494.044 468.158l122.651-5.636 91.232-150.979h-294.155l80.272 156.615z" />
<glyph unicode="&#xe90d;" d="M413.772 311.543h-130.465c-31.699 0-57.702 32.559-72.078 78.971l102.222 222.986 180.594-145.343-80.272-156.615z" />
<glyph unicode="&#xe90e;" d="M616.695 462.522c0 0 127.288 132.028 154.666 160.287 30.133-54.969 35.056-134.714 21.466-199.747l-0.001 0.004c-12.984-62.689-43.327-111.523-84.899-111.523z" />
<glyph unicode="&#xe90f;" d="M827.186 15.818c0-37.547-146.9-67.985-328.11-67.985s-328.109 30.438-328.109 67.985c0 37.55 146.899 67.988 328.109 67.988s328.11-30.438 328.11-67.988z" />
<glyph unicode="&#xe910;" d="M577.786 457.605c-7.109-19.584 71.151 68.566 50.859 58.054l-346.977 404.808c-36.756-61.267-27.099-139.651 23.415-190.165l272.703-272.696z" />
<glyph unicode="&#xe911;" d="M610.239 417.359c0-32.51 26.466-58.957 58.976-58.957s58.976 26.447 58.976 58.957c0 32.523-26.466 58.985-58.976 58.985s-58.976-26.462-58.976-58.985zM563.38 417.356c0 58.362 47.492 105.846 105.834 105.846 58.357 0 105.834-47.484 105.834-105.846 0-58.327-47.477-105.813-105.834-105.813-58.343 0-105.834 47.486-105.834 105.813z" />
<glyph unicode="&#xe912;" d="M541.635 617.155l-58.444-64.963 55.738-55.754 57.163 57.167-54.457 63.55z" />
<glyph unicode="&#xe913;" d="M716.821 730.3c50.514 50.514 60.171 128.898 23.415 190.165l-346.963-404.808c-20.306 10.513 57.911-77.637 50.845-58.054l272.703 272.696z" />
<glyph unicode="&#xe914;" d="M411.364 411.565v-0.239c-3.008-29.664-28.135-52.958-58.688-52.958-30.481 0-55.608 23.294-58.674 52.958v0.239c-0.187 1.885-0.302 3.832-0.302 5.778 0 32.553 26.48 58.975 58.976 58.975 32.553 0 58.976-26.421 58.976-58.975 0-1.946-0.115-3.893-0.288-5.778zM352.675 523.202c-58.328 0-105.791-47.474-105.791-105.859 0-2.005 0.058-3.952 0.173-5.898 3.065-55.613 49.305-99.902 105.619-99.902 56.386 0 102.611 44.29 105.691 99.902 0.115 1.946 0.173 3.893 0.173 5.898 0 58.385-47.477 105.859-105.863 105.859z" />
<glyph unicode="&#xe915;" d="M510.952 618.223c14.593 0 26.379-11.802 26.379-26.374 0-14.587-11.787-26.382-26.379-26.382s-26.379 11.795-26.379 26.382c0 14.571 11.787 26.374 26.379 26.374z" />
<glyph unicode="&#xe916;" d="M839.062 15.818c0-37.547-146.893-67.985-328.11-67.985-181.202 0-328.11 30.438-328.11 67.985 0 37.55 146.908 67.988 328.11 67.988 181.217 0 328.11-30.438 328.11-67.988z" />
</font>
</defs>
</svg>
